<?xml version="1.0" encoding="UTF-8" standalone="no"?>
<!-- Created with Inkscape (http://www.inkscape.org/) -->

<svg
   xmlns:dc="http://purl.org/dc/elements/1.1/"
   xmlns:cc="http://creativecommons.org/ns#"
   xmlns:rdf="http://www.w3.org/1999/02/22-rdf-syntax-ns#"
   xmlns:svg="http://www.w3.org/2000/svg"
   xmlns="http://www.w3.org/2000/svg"
   xmlns:sodipodi="http://sodipodi.sourceforge.net/DTD/sodipodi-0.dtd"
   xmlns:inkscape="http://www.inkscape.org/namespaces/inkscape"
   width="348.8259mm"
   height="204.57104mm"
   viewBox="0 0 1235.9974 724.85794"
   id="svg2"
   version="1.1"
   inkscape:version="0.91 r13725"
   sodipodi:docname="Firma de Juan José Pradera.svg">
  <defs
     id="defs4" />
  <sodipodi:namedview
     id="base"
     pagecolor="#ffffff"
     bordercolor="#666666"
     borderopacity="1.0"
     inkscape:pageopacity="0.0"
     inkscape:pageshadow="2"
     inkscape:zoom="0.70175232"
     inkscape:cx="802.80313"
     inkscape:cy="438.70402"
     inkscape:document-units="px"
     inkscape:current-layer="layer1"
     showgrid="false"
     fit-margin-left="3"
     fit-margin-top="3"
     fit-margin-right="3"
     fit-margin-bottom="3"
     inkscape:window-width="1366"
     inkscape:window-height="705"
     inkscape:window-x="-8"
     inkscape:window-y="-8"
     inkscape:window-maximized="1" />
  <metadata
     id="metadata7">
    <rdf:RDF>
      <cc:Work
         rdf:about="">
        <dc:format>image/svg+xml</dc:format>
        <dc:type
           rdf:resource="http://purl.org/dc/dcmitype/StillImage" />
        <dc:title></dc:title>
      </cc:Work>
    </rdf:RDF>
  </metadata>
  <g
     inkscape:label="Capa 1"
     inkscape:groupmode="layer"
     id="layer1"
     transform="translate(2657.5457,311.22627)">
    <path
       style="fill:#000000"
       d="m -2646.6285,401.11155 c -1.177,-3.06707 1.3061,-12.47031 6.6476,-25.17358 0.9109,-2.1664 1.6562,-4.57477 1.6562,-5.35192 0,-1.38978 3.4036,-11.96734 6.7803,-21.07166 4.4339,-11.95484 19.9295,-62.22321 23.3064,-75.60721 0.8284,-3.28334 1.9916,-6.26966 2.5848,-6.63628 0.5932,-0.36661 1.0785,-2.31862 1.0785,-4.33782 0,-2.01919 1.0571,-6.90787 2.3491,-10.86373 1.2921,-3.95586 3.8836,-12.53622 5.7589,-19.06747 1.8754,-6.53125 3.8514,-12.43751 4.3911,-13.12501 0.5397,-0.6875 2.2242,-5.7087 3.7434,-11.15821 1.5191,-5.44952 3.2427,-10.79327 3.8301,-11.875 1.7993,-3.31299 4.9274,-15.88485 4.9274,-19.8031 0,-2.03585 1.125,-5.13175 2.5,-6.87978 1.409,-1.79128 2.5,-5.07097 2.5,-7.51551 0,-2.38551 0.8438,-5.03754 1.875,-5.8934 1.0313,-0.85586 1.875,-3.04244 1.875,-4.85906 0,-1.81663 1.125,-5.40197 2.5,-7.96742 1.375,-2.56546 2.5,-6.24648 2.5,-8.18008 0,-1.93359 0.8259,-4.60751 1.8353,-5.94203 1.0093,-1.33453 1.8722,-3.55141 1.9174,-4.92641 0.045,-1.375 1.169,-4.75 2.4973,-7.5 1.3284,-2.75 2.4343,-6.75925 2.4576,-8.90945 0.023,-2.15019 0.8273,-4.56085 1.7866,-5.35703 0.9594,-0.79618 2.1054,-3.37255 2.5468,-5.725263 0.4414,-2.352713 1.6217,-5.8483 2.623,-7.767963 1.0014,-1.919663 1.8241,-4.71575 1.8283,-6.213513 0,-1.497775 0.8515,-3.566963 1.8827,-4.598213 1.0313,-1.03125 1.875,-3.516613 1.875,-5.523025 0,-2.006413 1.125,-4.945163 2.5,-6.530551 1.375,-1.585388 2.5,-4.652713 2.5,-6.816263 0,-2.16355 0.607,-4.54075 1.3489,-5.282663 0.742,-0.741913 1.8823,-3.722388 2.534,-6.623288 0.6518,-2.900888 2.0136,-6.1028 3.0261,-7.115351 1.0126,-1.012562 1.841,-3.925675 1.841,-6.473588 0,-2.547925 0.7719,-5.742125 1.7153,-7.098213 0.9434,-1.3561 2.137,-4.402525 2.6524,-6.769825 0.5154,-2.3673 1.7123,-5.079363 2.6597,-6.026788 0.9475,-0.947425 1.7226,-3.582288 1.7226,-5.8552507 0,-2.2729627 0.8438,-4.8329129 1.875,-5.6887755 1.0313,-0.8558625 1.8771,-3.03411271 1.8797,-4.8405504 0,-1.8064501 1.1276,-5.1261754 2.5,-7.3771631 1.3724,-2.2509873 2.4953,-4.9767003 2.4953,-6.0571383 0,-1.080425 0.7982,-3.457462 1.7738,-5.282288 0.9756,-1.824825 2.4591,-6.004225 3.2965,-9.287563 0.8375,-3.283338 2.008,-6.269663 2.6012,-6.636275 0.5932,-0.366613 1.0785,-1.659326 1.0785,-2.872701 0,-1.213375 1.9688,-6.749175 4.375,-12.301788 2.4063,-5.552613 4.375,-10.923901 4.375,-11.936201 0,-1.977263 3.9792,-11.926676 6.9394,-17.351202 0.9958,-1.824825 1.8106,-4.456525 1.8106,-5.848212 0,-1.391701 0.8031,-3.333451 1.7847,-4.315013 0.9815,-0.981563 2.1654,-3.814201 2.6307,-6.294751 0.4654,-2.48055 1.631,-5.161511 2.5904,-5.957691 0.9593,-0.79617 1.7442,-2.74478 1.7442,-4.33025 0,-1.58546 0.8438,-3.7264 1.875,-4.75765 1.0313,-1.03125 1.875,-2.50485 1.875,-3.27467 0,-0.76982 1.125,-3.72815 2.5,-6.57408 1.375,-2.84591 2.5,-6.14816 2.5,-7.33831 0,-2.04116 0.7777,-3.86993 6.4274,-15.11417 1.2774,-2.54245 2.3226,-5.70795 2.3226,-7.03443 0,-1.32649 0.8438,-3.11205 1.875,-3.96792 1.0313,-0.85586 1.8787,-2.47161 1.8833,-3.59055 0.01,-1.11895 1.1258,-3.72195 2.4917,-5.78445 1.366,-2.0625 2.4873,-5.01562 2.4918,-6.5625 0,-1.54687 0.56,-2.8125 1.2344,-2.8125 0.6744,0 1.6002,-1.54687 2.0572,-3.4375 1.0939,-4.52475 5.6794,-13.17376 7.6541,-14.43711 0.8594,-0.54979 1.5625,-2.65916 1.5625,-4.6875 0,-2.02834 1.125,-4.81289 2.5,-6.18789 1.375,-1.375 2.5,-3.58482 2.5,-4.91071 0,-1.3259 0.8438,-3.25447 1.875,-4.28572 1.0313,-1.03125 1.875,-2.30008 1.875,-2.81963 0,-1.01736 4.4703,-11.15458 6.2769,-14.23394 2.3381,-3.98524 6.0328,-12.01633 6.9009,-15 1.0735,-3.68971 2.7054,-4.95476 6.4255,-4.98086 4.5194,-0.0317 4.7216,4.20664 0.5807,12.17068 -8.0485,15.47915 -15.184,30.19917 -15.184,31.32353 0,0.64929 -0.8437,1.88079 -1.875,2.73665 -1.0312,0.85586 -1.875,2.78099 -1.875,4.27805 0,1.49708 -0.5331,3.25633 -1.1846,3.90945 -1.8837,1.88816 -7.5654,13.02956 -7.5654,14.83508 0,0.90215 -1.125,3.07048 -2.5,4.81851 -1.375,1.74802 -2.5,4.65404 -2.5,6.4578 0,1.80376 -0.8437,3.60335 -1.875,3.99908 -1.0312,0.39573 -1.875,2.07108 -1.875,3.72301 0,1.65192 -1.125,3.96675 -2.5,5.14406 -1.3862,1.18695 -2.5,3.68743 -2.5,5.61276 0,1.90972 -0.5178,3.4722 -1.1507,3.4722 -0.6328,0 -1.5516,1.82813 -2.0416,4.0625 -0.4901,2.23438 -1.941,6.02293 -3.2243,8.41899 -1.2834,2.39608 -2.3334,5.28033 -2.3334,6.40945 0,1.12913 -0.7849,2.70437 -1.7442,3.50054 -0.9594,0.79618 -2.0992,3.33979 -2.5331,5.65246 -0.4339,2.31267 -1.6177,4.89275 -2.6308,5.73352 -1.013,0.84076 -1.8419,3.07841 -1.8419,4.97255 0,1.89414 -0.8437,4.14414 -1.875,5 -1.0312,0.85586 -1.8784,2.47161 -1.8827,3.590548 0,1.118951 -0.8389,3.628126 -1.8548,5.575938 -1.0159,1.947826 -2.4404,5.744701 -3.1655,8.437501 -0.7251,2.692813 -1.8592,4.896013 -2.5202,4.896013 -0.661,0 -1.2018,1.670388 -1.2018,3.711975 0,2.041588 -1.125,5.714951 -2.5,8.163026 -1.375,2.448075 -2.5,5.771313 -2.5,7.384963 0,1.613663 -0.8437,3.634175 -1.875,4.490038 -1.0312,0.855863 -1.875,2.333025 -1.875,3.282588 0,0.949562 -1.125,3.825475 -2.5,6.390938 -1.375,2.56545 -2.5,5.429738 -2.5,6.3651 0,0.93535 -0.7657,3.193688 -1.7017,5.018513 -2.066,4.028138 -4.1814,9.990388 -6.4952,18.306639 -0.9546,3.431338 -2.3134,6.431338 -3.0194,6.666676 -1.2381,0.412687 -1.8903,6.4695502 -0.6967,6.4695502 1.1907,0 10.0788,-5.2448254 11.288,-6.6610132 1.8465,-2.162637 11.1895,-8.338988 12.6144,-8.338988 0.6765,0 3.1776,-1.664638 5.5578,-3.6992 2.3803,-2.034563 4.9909,-3.722063 5.8013,-3.750001 0.8104,-0.02788 3.4731,-1.9367 5.9171,-4.241675 2.444,-2.304988 6.7028,-5.756488 9.464,-7.670001 2.7612,-1.913525 5.0204,-3.965125 5.0204,-4.559125 0,-0.594 0.7969,-1.08 1.7709,-1.08 0.9739,0 1.9583,-0.501325 2.1875,-1.114063 0.2291,-0.612737 5.1215,-4.254375 10.872,-8.092538 8.3224,-5.554888 10.9206,-6.729438 12.7364,-5.757688 5.4701,2.927525 3.7794,20.887027 -3.3305,35.378091 -0.955,1.946337 -1.7363,4.693575 -1.7363,6.104975 0,1.4114 -0.6569,4.758863 -1.4599,7.438826 -1.9658,6.5612378 -0.4267,8.0959004 6.0323,6.0149627 4.1504,-1.3371501 12.2462,-6.8858757 17.7044,-12.1342637 0.9085,-0.873562 2.2612,-1.5883 3.006,-1.5883 0.7449,0 3.4136,-2.109375 5.9304,-4.6875 2.5169,-2.578125 5.9394,-5.531251 7.6056,-6.562501 1.6662,-1.03125 4.723,-3.5625 6.7929,-5.625 2.0698,-2.0625 6.8571,-6.261938 10.6383,-9.332076 3.7813,-3.070138 8.2174,-6.867013 9.858,-8.437501 1.6406,-1.570487 3.6811,-2.855425 4.5344,-2.855425 0.8533,0 2.2518,-0.84375 3.1076,-1.875 2.2507,-2.711913 3.2537,-2.341 4.9873,1.844363 1.7342,4.186712 -0.088,18.548026 -2.5467,20.067364 -1.4061,0.869037 -3.8174,14.874763 -2.8451,16.525776 1.5306,2.599163 17.9045,-2.413363 17.9045,-5.4811 0,-0.6288 1.4178,-1.682301 3.1505,-2.341088 3.9456,-1.500088 16.0187,-10.408226 21.9843,-16.221064 2.4803,-2.416838 6.336,-5.8005 8.5682,-7.519251 2.2321,-1.71875 4.7065,-3.6875 5.4987,-4.375 5.3854,-4.673975 11.4646,-7.958751 12.6098,-6.813525 1.8285,1.82845 1.2487,15.882551 -0.7547,18.295501 -2.1956,2.6445 -4.6309,14.909539 -3.3635,16.940101 0.759,1.216001 2.2116,0.932038 6.3333,-1.23805 2.9416,-1.548787 6.0038,-2.814412 6.8047,-2.8125 0.801,0.0025 2.7698,-1.131325 4.375,-2.5183 1.6053,-1.386975 7.5553,-5.561676 13.2221,-9.277113 5.6669,-3.715438 11.6989,-7.853026 13.4045,-9.194639 1.7056,-1.341612 6.1772,-3.687812 9.937,-5.213788 l 6.8359,-2.774487 2.8846,2.6939 c 2.7436,2.562188 2.8681,3.423488 2.5459,17.615901 -0.3137,13.823464 -0.1679,14.922002 1.9809,14.922002 1.2758,0 3.8232,-1.687501 5.6609,-3.750001 1.8376,-2.0625 3.8994,-3.75 4.5816,-3.75 0.6822,0 1.2442,-0.703125 1.2489,-1.5625 0.01,-0.859375 1.8695,-2.829425 4.1441,-4.377901 2.2745,-1.548462 6.9113,-5.369212 10.3039,-8.490563 3.3927,-3.12135 8.4184,-7.197175 11.1684,-9.0574 2.75,-1.860238 5.7737,-4.116726 6.7193,-5.014438 0.9456,-0.897713 3.4769,-1.461213 5.625,-1.2522 l 3.9057,0.38 0.1113,16.004063 c 0.1392,20.035827 0.934,21.390365 10.5477,17.975877 3.4355,-1.220163 8.1476,-4.02105 10.4715,-6.224201 15.2395,-14.447976 18.3648,-17.876076 18.931,-20.765776 0.3491,-1.781975 1.2393,-4.927463 1.9781,-6.989963 0.7388,-2.062501 1.8038,-6.281251 2.3666,-9.375001 0.5629,-3.09375 1.9112,-7.716313 2.9962,-10.272351 1.085,-2.55605 1.9727,-6.002801 1.9727,-7.659451 0,-1.65665 0.8437,-3.712337 1.875,-4.5682 1.0312,-0.855863 1.8873,-3.034113 1.9024,-4.84055 0.015,-1.806451 1.1401,-5.736499 2.5,-8.733449 1.3599,-2.99696 2.4726,-6.66868 2.4726,-8.15938 0,-1.4907 0.7635,-3.8199 1.6968,-5.17599 0.9332,-1.3561 2.3895,-5.55938 3.2362,-9.34063 0.8468,-3.78125 2.6145,-9.2595 3.9283,-12.17388 1.3138,-2.91439 2.3887,-6.66568 2.3887,-8.3362 0,-1.67053 0.7959,-4.62979 1.7688,-6.57613 2.5337,-5.06935 11.9811,-29.98095 11.9811,-31.59291 0,-0.74515 0.5222,-2.33155 1.1605,-3.52535 0.6382,-1.1938 2.2525,-4.70179 3.5872,-7.79554 1.3347,-3.09375 3.625,-8.29075 5.0895,-11.54888 1.4646,-3.25813 2.6654,-6.63313 2.6686,-7.5 0.01,-2.44385 5.2455,-14.68371 9.0586,-21.17371 1.8896,-3.21617 3.4356,-6.76803 3.4356,-7.89301 0,-1.12499 2.3907,-4.82142 5.3125,-8.2143 5.7405,-6.66577 8.9118,-7.61481 13.3085,-3.9826 2.3527,1.94359 2.4657,2.53593 1.0133,5.3125 -0.8991,1.71875 -2.6348,8.1875 -3.8572,14.375 -1.2223,6.1875 -2.9929,13.21875 -3.9346,15.625 -0.9417,2.40625 -2.0788,6.80479 -2.5269,9.77453 -0.4481,2.96975 -1.6024,5.70181 -2.5651,6.07124 -0.9628,0.36944 -1.7505,1.77504 -1.7505,3.12357 0,2.14639 -11.033,37.43978 -13.8034,44.15566 -0.5672,1.375 -1.7483,4.75 -2.6246,7.5 -0.8764,2.75 -1.9736,5.5625 -2.4383,6.25 -0.4648,0.6875 -1.2519,3.21875 -1.7492,5.625 -0.4973,2.40626 -1.9685,6.12891 -3.2693,8.27254 -1.3008,2.14365 -2.3652,4.97162 -2.3652,6.28438 0,1.31275 -0.7637,3.49636 -1.6971,4.85245 -0.9334,1.3561 -2.4076,4.71564 -3.276,7.46564 -0.8684,2.75 -2.0734,5.53437 -2.6779,6.1875 -0.6044,0.65312 -1.099,2.17205 -1.099,3.37539 0,1.20333 -0.7361,2.63771 -1.6359,3.1875 -0.8997,0.54978 -2.4056,2.968358 -3.3463,5.374609 -2.4039,6.148925 -9.8222,22.632102 -11.5325,25.625002 -0.7858,1.375 -2.1357,3.850225 -2.9999,5.500513 -0.8642,1.650287 -2.043,3.337787 -2.6197,3.75 -1.3435,0.96045 -5.2655,7.026238 -8.1314,12.576289 -1.2288,2.379737 -2.2343,6.698938 -2.2343,9.598213 0,2.9374 -0.8022,6.07365 -1.8118,7.083288 -0.9966,0.996525 -2.461,5.5395 -3.2544,10.095488 -0.7934,4.555988 -1.9468,8.595276 -2.5632,8.976188 -0.6163,0.380913 -1.1206,3.162676 -1.1206,6.1816885 0,3.6585253 -0.6462,5.8507629 -1.9377,6.573538 -1.1909,0.66647506 -2.3517,4.0128753 -3.0118,8.6827132 -0.5907,4.1790633 -1.6874,8.7445383 -2.4372,10.1455133 -0.7498,1.400975 -1.3816,4.412325 -1.4041,6.691901 -0.022,2.279575 -1.129,7.238425 -2.4592,11.019675 -1.3301,3.781251 -2.4566,8.843751 -2.5034,11.250001 -0.047,2.406251 -0.889,5.781251 -1.8716,7.500001 -0.9825,1.71875 -1.8063,5.533688 -1.8307,8.477651 -0.024,2.94395 -0.9258,7.44395 -2.0033,10.000001 -1.0775,2.556037 -2.2556,8.58485 -2.618,13.397351 -0.3623,4.8125 -1.4098,11.000001 -2.3278,13.750001 -0.918,2.749995 -1.9649,8.754915 -2.3264,13.344235 -0.3615,4.58934 -1.5261,10.42367 -2.588,12.96517 -1.0619,2.5415 -1.9308,7.01887 -1.9308,9.94971 0,2.93084 -0.7883,8.06528 -1.7519,11.40985 -0.9635,3.34456 -2.6419,12.26854 -3.7297,19.83104 -1.0877,7.5625 -2.3309,15.57123 -2.7627,17.79716 -0.4317,2.22594 -0.4342,4.96117 -0.01,6.07828 1.1893,3.09912 4.4999,-0.22611 4.4999,-4.51976 0,-1.92529 0.8326,-3.78272 1.875,-4.18272 1.0695,-0.41041 1.875,-2.27491 1.875,-4.34016 0,-1.99136 1.0942,-5.01172 2.4316,-6.71191 1.6379,-2.08225 2.5559,-5.50334 2.8125,-10.48108 0.2089,-4.0644 0.9428,-7.38981 1.6303,-7.38981 2.0628,0 2.1804,6.67441 0.2274,12.9057 -1.0075,3.21436 -2.7364,8.7323 -3.8421,12.26206 -2.4806,7.91942 -2.6373,11.25592 -0.4478,9.53597 0.8594,-0.67508 4.375,-2.27523 7.8125,-3.5559 3.4375,-1.28068 8.6704,-3.60972 11.6287,-5.17567 2.9582,-1.56593 6.1457,-2.84716 7.0833,-2.84716 0.9376,0 1.8922,-0.42436 2.1214,-0.94304 0.2291,-0.51866 4.3541,-2.29898 9.1666,-3.95625 8.2309,-2.83443 16.4187,-6.54168 33.5228,-15.17836 4,-2.01979 8.2835,-3.67235 9.5189,-3.67235 1.2354,0 3.5877,-1.04493 5.2273,-2.32205 1.6396,-1.27714 5.231,-3.07946 7.981,-4.00519 2.75,-0.92571 5.5344,-2.13079 6.1875,-2.67794 0.6532,-0.54715 2.4813,-0.99482 4.0625,-0.99482 1.5813,0 2.875,-0.56978 2.875,-1.26618 0,-1.29613 4.6399,-3.57253 24.3751,-11.95876 6.1875,-2.62931 12.3595,-5.51058 13.7156,-6.40281 1.3561,-0.89224 3.2398,-1.62225 4.1861,-1.62225 2.0131,0 10.0142,-3.52807 12.7233,-5.61027 1.0312,-0.79263 3.8437,-2.0579 6.25,-2.81171 6.6588,-2.08604 17.6124,-6.89936 22.5,-9.88719 2.4062,-1.47097 7.4687,-3.90206 11.25,-5.402435 3.7812,-1.500376 8.5625,-3.510213 10.625,-4.466301 2.0625,-0.9561 6.5625,-2.830025 10,-4.164275 3.4375,-1.33425 7.9375,-3.318375 10,-4.409163 2.0625,-1.0908 4.3909,-1.986725 5.1742,-1.990963 0.7833,-0.0037 5.9806,-2.2577 11.5495,-5.0077 5.5689,-2.75 10.906,-5 11.8602,-5 0.9542,0 2.4352,-0.843751 3.2911,-1.875001 0.8558,-1.03125 2.8526,-1.875 4.4372,-1.875 1.5846,0 6.6582,-1.96875 11.2746,-4.375 4.6165,-2.40625 8.8822,-4.375 9.4795,-4.375 0.5972,0 3.4704,-1.064138 6.3848,-2.364751 2.9144,-1.300612 6.1426,-2.703287 7.1739,-3.11705 1.0312,-0.413762 2.7187,-1.236 3.75,-1.8272 4.0664,-2.331213 10.8055,-5.147063 14.2576,-5.957326 1.9979,-0.46895 7.3149,-2.738375 11.8155,-5.043162 4.5006,-2.304776 8.8336,-4.190513 9.6289,-4.190513 0.7953,0 4.6084,-1.6875 8.4734,-3.750001 3.865,-2.0625 7.7456,-3.75 8.6234,-3.75 0.8778,0 4.2377,-1.40625 7.4664,-3.125 3.2286,-1.71875 6.6942,-3.125 7.7012,-3.125 1.007,0 3.4234,-0.821488 5.3698,-1.825526 5.7662,-2.974587 16.9238,-7.744688 22.2888,-9.528963 2.75,-0.914575 5.888,-2.390213 6.9734,-3.2791876 1.0854,-0.8889751 2.7883,-1.6163252 3.7844,-1.6163252 0.996,0 2.9204,-0.771875 4.2765,-1.7152876 1.3561,-0.9434001 4.2549,-2.1045627 6.4418,-2.5803377 2.1869,-0.4757875 4.6464,-1.6726626 5.4656,-2.6597252 0.8191,-0.9870626 2.7192,-1.79465017 4.2224,-1.79465017 1.5032,0 3.8249,-0.82586253 5.1595,-1.83525013 1.3345,-1.0093751 3.3456,-1.8531252 4.4691,-1.8750002 1.1235,-0.021875 6.5382,-2.2897502 12.0325,-5.0397504 5.4943,-2.7499998 11.1684,-5.0000008 12.6091,-5.0000008 2.334,0 12.6944,-4.2922 17.6907,-7.329038 1.0312,-0.626812 5.8125,-2.436962 10.625,-4.02255 4.8125,-1.585575 10.1562,-3.61415 11.875,-4.507938 1.7187,-0.893787 3.7592,-1.628538 4.5344,-1.632775 0.7752,-0.0038 2.1097,-0.85145 2.9656,-1.8827 0.8558,-1.03125 2.8246,-1.875 4.375,-1.875 1.5504,0 3.5191,-0.84375 4.375,-1.875 0.8558,-1.031251 2.7683,-1.875001 4.2499,-1.875001 1.4816,0 3.8034,-0.767987 5.1594,-1.706625 1.3561,-0.93865 3.8719,-2.108387 5.5907,-2.599425 4.528,-1.293638 16.3607,-5.748125 20,-7.529126 1.7187,-0.841125 7.3437,-2.8218 12.5,-4.401512 5.1562,-1.579701 9.9375,-3.494563 10.625,-4.255251 1.3705,-1.51645 11.0852,-5.2608 18.3917,-7.0888 2.553,-0.638713 7.8967,-2.612013 11.875,-4.385101 3.9783,-1.773087 9.4833,-4.2195 12.2333,-5.436463 2.75,-1.216975 9.5,-3.763612 15,-5.659213 12.675,-4.368488 15.1928,-5.36995 20.8726,-8.3021 2.5425,-1.312513 5.4267,-2.386388 6.4095,-2.386388 0.9827,0 2.487,-0.84375 3.3429,-1.875 0.8559,-1.03125 2.5066,-1.875 3.6683,-1.875 1.1616,0 4.406,-1.108288 7.2097,-2.462863 2.8036,-1.354586 7.5063,-3.004086 10.4503,-3.665566 2.9441,-0.66148 5.8462,-2.08443 6.4493,-3.16213 0.6031,-1.07769 2.1605,-1.95944 3.4608,-1.95944 1.3002,0 2.7022,-0.54721 3.1156,-1.21604 0.4134,-0.66881 2.92,-1.79991 5.5702,-2.51356 2.6503,-0.71365 5.1402,-2.13519 5.533,-3.15898 0.5924,-1.54376 -0.8256,-1.85772 -8.309,-1.83972 -4.9627,0.0125 -12.8245,0.82723 -17.4705,1.81176 -6.5678,1.39177 -11.0176,1.52187 -20,0.58469 -17.6852,-1.84519 -22.1325,-2.58372 -22.8843,-3.80019 -0.38,-0.61488 -2.0269,-1.11796 -3.6598,-1.11796 -2.8112,0 -12.5276,-3.60727 -23.8955,-8.8713 -2.8253,-1.30829 -5.7096,-2.3787 -6.4095,-2.3787 -0.6999,0 -1.9118,-0.77029 -2.6931,-1.71174 -2.8168,-3.39403 -27.9897,-3.21058 -35.7605,0.26061 -1.375,0.61421 -5.875,2.36055 -10,3.88075 -8.4144,3.10096 -17.1028,6.8535 -22.0679,9.5311 -1.8248,0.9841 -4.2154,1.78928 -5.3125,1.78928 -1.097,0 -1.9946,0.57456 -1.9946,1.2768 0,0.70223 -1.5469,1.9613 -3.4375,2.79792 -1.8906,0.83661 -4.1808,2.2308 -5.0893,3.0982 -0.9085,0.86739 -2.9104,1.57708 -4.4486,1.57708 -1.5382,0 -3.8887,0.82586 -5.2232,1.83525 -1.3345,1.00937 -4.9704,1.85312 -8.0797,1.875 -5.1398,0.0361 -5.8398,-0.32918 -7.7081,-4.02275 -1.1301,-2.23438 -2.4231,-5.72609 -2.8731,-7.75937 -1.9938,-9.00736 -11.008,-12.27422 -27.483,-9.96017 -10.4628,1.46959 -26.3769,6.16212 -27.5978,8.1377 -0.389,0.62939 -1.8167,1.14434 -3.1727,1.14434 -1.356,0 -2.7893,0.84375 -3.185,1.875 -0.3957,1.03125 -1.4239,1.875 -2.2848,1.875 -0.8609,0 -4.1214,2.25 -7.2456,5 -3.1241,2.75 -6.1262,5 -6.6713,5 -0.545,0 -3.1154,1.47225 -5.712,3.271661 -4.8841,3.384675 -8.5383,3.296775 -8.5383,-0.205371 0,-2.26698 11.0525,-13.06629 13.3727,-13.06629 0.8267,0 1.9529,-0.70313 2.5027,-1.5625 1.3957,-2.18163 7.7406,-5.48665 12.4757,-6.49852 2.1869,-0.46732 4.6464,-1.65727 5.4656,-2.64433 0.8191,-0.98707 2.5319,-1.79465 3.8061,-1.79465 1.2742,0 4.1585,-1.1229 6.4095,-2.49533 2.251,-1.37244 5.4989,-2.5059 7.2177,-2.51882 1.7187,-0.0129 5.375,-0.83409 8.125,-1.8248 6.9296,-2.49649 24.8131,-2.52048 26.875,-0.036 0.8558,1.03125 2.206,1.875 3.0002,1.875 1.7266,0 5.7498,4.46688 5.7498,6.38392 0,0.74544 0.7996,2.84839 1.7769,4.67321 0.9774,1.82483 2.1123,4.37427 2.5222,5.66543 0.6246,1.96754 1.643,2.24637 6.2909,1.72249 5.2268,-0.58914 26.1305,-9.92263 27.6197,-12.33218 0.3783,-0.61207 2.0277,-1.11287 3.6653,-1.11287 1.6376,0 3.3244,-0.56142 3.7485,-1.24758 0.9601,-1.55351 12.6625,-7.00606 16.8765,-7.86335 3.4529,-0.70246 8.6942,-2.50817 18.0797,-6.22879 4.7653,-1.88909 8.0542,-2.3112 14.1778,-1.81966 4.3852,0.352 8.5962,1.26311 9.3578,2.02469 0.7616,0.76157 2.3639,1.38469 3.5608,1.38469 1.1968,0 7.1312,2.28605 13.1875,5.08011 16.9642,7.82645 18.1259,8.30135 24.1364,9.86737 16.9903,4.42678 27.9433,4.76454 57.0455,1.75913 11.0939,-1.14566 21.1502,-1.70713 22.3475,-1.24768 4.8681,1.86809 -1.3228,15.79107 -7.0216,15.79107 -1.206,0 -3.0483,0.8554 -4.0937,1.90089 -1.0455,1.04547 -4.8826,2.85302 -8.5268,4.01676 -3.6443,1.16374 -7.3692,2.839586 -8.2777,3.724111 -0.9085,0.884538 -2.205,1.608238 -2.8811,1.608238 -0.6761,0 -3.589,1.046887 -6.4732,2.326425 -2.8841,1.279537 -11.7127,4.7155 -19.6189,7.635475 -7.9063,2.919976 -14.9094,5.810588 -15.5625,6.423576 -0.6531,0.612988 -2.1367,1.114525 -3.2968,1.114525 -1.1601,0 -8.7603,2.8125 -16.8894,6.250001 -8.1291,3.4375 -15.6737,6.25 -16.7657,6.25 -1.0921,0 -2.52,0.49455 -3.1731,1.099 -0.6531,0.60445 -3.4375,1.795875 -6.1875,2.647613 -5.882,1.821788 -11.8298,4.227825 -18.75,7.584813 -2.75,1.334038 -5.6316,2.423963 -6.4036,2.42205 -1.2125,-0.0025 -6.966,2.2347 -16.0964,6.260326 -3.0336,1.337512 -12.374,4.928725 -22.5,8.650888 -4.125,1.516275 -8.3438,3.28435 -9.375,3.929038 -1.0313,0.6447 -2.7188,1.53275 -3.75,1.973437 -1.0313,0.440688 -4.2348,1.843363 -7.1189,3.117051 -2.8842,1.273687 -5.6117,2.315787 -6.0611,2.315787 -0.4495,0 -2.5897,0.782825 -4.7561,1.739626 -2.1664,0.956787 -7.8764,3.258237 -12.6889,5.114325 -4.8125,1.856075 -9.3125,3.808188 -10,4.338013 -0.6875,0.529825 -2.7617,1.324025 -4.6094,1.764887 -1.8477,0.440863 -6.9102,2.442988 -11.25,4.4491508 -4.3398,2.0061752 -9.4428,4.0353503 -11.3399,4.5092754 -1.8972,0.473925 -3.7585,1.3618626 -4.1363,1.9732001 -0.3778,0.6113376 -1.5765,1.1115251 -2.6638,1.1115251 -1.0872,0 -4.5697,1.18607513 -7.7387,2.63572524 -5.7829,2.64531276 -11.4605,5.15963796 -20.7619,9.19450076 -2.75,1.1929246 -6.6875,2.9024756 -8.75,3.7990256 -10.9224,4.747838 -15.6869,6.727338 -22.5,9.34805 -4.125,1.586713 -9.8598,3.928426 -12.744,5.203813 -2.8841,1.275338 -5.7916,2.318838 -6.4612,2.318838 -1.0975,0 -6.4816,2.460425 -11.4198,5.218638 -1.0313,0.576 -2.7188,1.352825 -3.75,1.726288 -1.0313,0.37345 -3.9552,1.776125 -6.4977,3.117037 -2.5424,1.340926 -5.3959,2.438038 -6.341,2.438038 -0.945,0 -5.0524,1.605788 -9.1273,3.5684 -4.075,1.962626 -9.5106,4.253663 -12.0791,5.091201 -2.5686,0.837537 -4.9924,2.04425 -5.3863,2.6816 -0.3939,0.637338 -1.5527,1.1588 -2.5752,1.1588 -1.0225,0 -6.0641,1.96875 -11.2036,4.375 -5.1396,2.406251 -10.2053,4.375001 -11.2571,4.375001 -1.0518,0 -3.9926,1.0723 -6.5351,2.382875 -2.5424,1.310588 -7.1539,3.51215 -10.2476,4.892363 -3.0938,1.380225 -9.3358,4.245425 -13.8711,6.367125 -4.5353,2.121701 -8.8967,3.857638 -9.692,3.857638 -0.7953,0 -3.545,1.125 -6.1105,2.5 -2.5654,1.375001 -5.3182,2.500001 -6.1172,2.500001 -0.799,0 -4.7448,1.618812 -8.7685,3.59735 -13.4621,6.619688 -21.2967,10.152646 -22.5141,10.152646 -1.1397,0 -8.8321,3.67888 -12.9266,6.18214 -1.0313,0.63048 -5.25,2.42403 -9.375,3.98567 -4.125,1.56163 -8.3881,3.56898 -9.4735,4.46077 -1.0854,0.89179 -2.7138,1.62143 -3.6188,1.62143 -0.905,0 -5.7386,1.96875 -10.7414,4.375 -5.0028,2.40625 -9.5249,4.375 -10.049,4.375 -0.5242,0 -3.5213,1.18672 -6.6602,2.63716 -8.4174,3.88951 -21.2564,9.74301 -26.9571,12.2901 -2.75,1.22873 -6.9688,3.12046 -9.3751,4.20388 -2.4062,1.08341 -7.4687,3.20333 -11.25,4.71095 -3.7812,1.50761 -9.1619,3.79113 -11.9571,5.07451 -2.7952,1.28337 -5.511,2.3334 -6.0352,2.3334 -0.9095,0 -11.3899,4.78466 -27.6532,12.62461 -4.1363,1.99397 -8.4268,3.62539 -9.5345,3.62539 -1.1076,0 -2.696,0.82196 -3.5298,1.82659 -0.8337,1.00462 -2.7307,2.18625 -4.2155,2.62582 -5.2543,1.55553 -34.3655,15.44797 -35.2,16.79808 -0.3149,0.50964 -2.2543,1.26294 -4.3096,1.674 -5.0037,1.00075 -8.8151,5.03758 -8.8151,9.3366 0,1.9311 -0.8258,4.60298 -1.8352,5.9375 -1.0094,1.33453 -1.8531,3.48501 -1.875,4.77888 -0.065,3.83823 -5.0091,10.77254 -7.6809,10.77254 -3.5003,0 -4.2428,-3.18808 -2.5842,-11.09567 1.5818,-7.54115 0.6535,-9.89757 -3.0648,-7.77964 -3.3378,1.90122 -24.1221,11.3753 -24.9552,11.3753 -0.8185,0 -24.0088,10.92907 -26.7547,12.60891 -1.0312,0.63088 -3.2812,1.697 -5,2.36913 -1.7187,0.67214 -4.7174,2.07704 -6.6638,3.12202 -1.9463,1.04497 -4.1963,1.90541 -5,1.91208 -0.8036,0.006 -3.7764,1.83479 -6.6062,4.0625 -2.8298,2.2277 -13.7986,8.20909 -24.375,13.29198 -10.5765,5.08289 -20.2067,9.72351 -21.4005,10.3125 -1.1938,0.58899 -3.0219,1.07089 -4.0625,1.07089 -1.0406,0 -1.8958,0.42187 -1.9005,0.9375 -0.013,1.39535 -8.4375,6.87295 -10.9439,7.11554 -2.8047,0.27142 -7.3485,2.4598 -19.6726,9.47455 -5.5,3.13055 -12.6718,6.70155 -15.9375,7.93555 -3.2656,1.234 -5.9375,2.69862 -5.9375,3.25474 0,0.55611 -1.3669,1.35417 -3.0376,1.77348 -1.6706,0.41932 -3.78,1.48602 -4.6875,2.37044 -0.9074,0.88443 -3.8999,2.59834 -6.6499,3.80868 -2.75,1.21035 -6.1022,2.81426 -7.4494,3.56426 -9.8261,5.47027 -31.3364,16.01526 -32.6688,16.01526 -0.8979,0 -2.0824,0.70857 -2.6322,1.5746 -0.5498,0.86603 -4.3746,2.92487 -8.4996,4.5752 -4.125,1.65034 -8.9931,4.03552 -10.8179,5.3004 -1.8249,1.26489 -3.7517,2.2998 -4.2818,2.2998 -1.3156,0 -19.7452,9.05783 -20.5253,10.08779 -0.3437,0.4539 -2.0312,1.25613 -3.75,1.78273 -1.7187,0.52661 -4.6181,2.00867 -6.4429,3.29349 -1.8249,1.2848 -3.8654,2.336 -4.5345,2.336 -0.6691,0 -1.9167,0.84375 -2.7726,1.875 -0.8558,1.03125 -2.525,1.875 -3.7093,1.875 -1.1843,0 -3.1713,1.125 -4.4157,2.5 -1.2443,1.375 -3.0418,2.5 -3.9943,2.5 -2.0092,0 -9.1307,5.01243 -9.1307,6.42657 0,0.52605 2.6719,2.1403 5.9375,3.58723 4.9269,2.18301 8.016,2.58005 18.1492,2.33268 7.9009,-0.19288 12.7182,0.20839 13.6465,1.13673 2.3617,2.36168 -2.0988,3.24849 -16.4523,3.27098 -10.8343,0.017 -14.5542,-0.50415 -21.0796,-2.95306 -8.072,-3.02926 -11.4073,-6.8727 -9.2705,-10.68271 0.9662,-1.72271 9.8004,-8.11842 11.2138,-8.11842 0.431,0 1.6716,-0.75364 2.757,-1.67474 1.0854,-0.9211 7.5984,-4.10321 14.4734,-7.07135 6.875,-2.96813 14.4688,-6.57388 16.875,-8.01277 2.4063,-1.43887 7.75,-4.25792 11.875,-6.26455 4.125,-2.00661 8.9931,-4.39723 10.8179,-5.3125 1.8248,-0.91525 4.0386,-1.6641 4.9194,-1.6641 0.8809,0 2.7628,-1.02091 4.1822,-2.2687 1.4193,-1.24778 5.1118,-3.32208 8.2055,-4.60953 3.0938,-1.28747 6.4688,-2.99239 7.5,-3.78874 2.4805,-1.91543 12.9496,-6.83303 14.547,-6.83303 0.6917,0 3.4672,-1.67206 6.1678,-3.71569 2.7006,-2.04362 6.7833,-4.0834 9.0725,-4.53282 2.2893,-0.44944 4.4456,-1.55551 4.7919,-2.45794 0.3463,-0.90244 2.2702,-2.0011 4.2752,-2.44149 2.0051,-0.44038 3.6456,-1.1853 3.6456,-1.65537 0,-0.47008 4.0782,-2.75169 9.0625,-5.07026 15.3726,-7.15083 17.28,-8.18068 19.3347,-10.43893 1.0947,-1.20313 3.2033,-2.1875 4.6859,-2.1875 1.4825,0 3.9031,-1.125 5.379,-2.5 1.4759,-1.375 3.2806,-2.5 4.0105,-2.5 1.8741,0 11.2774,-6.0737 11.2774,-7.28416 0,-1.19265 8.1102,-5.21584 10.5144,-5.21584 0.9237,0 2.4434,-0.92036 3.3769,-2.04526 1.5232,-1.83532 38.1705,-20.39286 52.3587,-26.51353 3.0938,-1.33461 9.986,-4.45486 15.3161,-6.93389 5.3301,-2.47903 10.4644,-4.50733 11.4095,-4.50733 0.9451,0 2.4186,-0.84375 3.2744,-1.875 0.8559,-1.03125 2.1213,-1.875 2.812,-1.875 0.6907,0 5.2624,-1.90705 10.1594,-4.23788 11.5377,-5.49165 22.3193,-10.43973 28.8081,-13.22115 l 5.1781,-2.21962 2.1183,-11.09817 c 1.1651,-6.104 2.4817,-14.75443 2.9259,-19.22318 0.4442,-4.46875 1.3777,-9.53125 2.0746,-11.25 0.6968,-1.71875 1.7061,-7.34375 2.2428,-12.5 0.5367,-5.15625 1.575,-12.1875 2.3072,-15.625 1.6152,-7.5832 4.9695,-29.404818 6.2862,-40.895794 0.5292,-4.617688 1.5752,-9.134475 2.3244,-10.037326 0.7493,-0.902837 1.6423,-5.668888 1.9844,-10.591213 0.3422,-4.922313 1.4343,-10.249276 2.427,-11.837676 0.9928,-1.5884 2.1379,-6.74965 2.5447,-11.469451 0.4069,-4.7198 1.2742,-9.225363 1.9273,-10.012376 0.6532,-0.787012 1.5836,-4.931513 2.0677,-9.210013 0.4841,-4.2785 1.6523,-8.419938 2.596,-9.203188 0.9438,-0.78325 1.7159,-3.63315 1.7159,-6.3331007 0,-2.6999627 0.7708,-6.427963 1.7127,-8.28445065 0.942,-1.85648765 2.0995,-6.03418795 2.5722,-9.28378825 0.4728,-3.2496004 1.3342,-6.2017134 1.9144,-6.5602634 0.5801,-0.358537 1.454,-4.168525 1.942,-8.466638 0.488,-4.2981 1.4144,-8.467788 2.0587,-9.265951 0.74,-0.916725 0.6887,-1.749575 -0.1393,-2.261275 -0.7208,-0.445525 -1.3271,-0.07375 -1.3471,0.826213 -0.051,2.284062 -13.5762,11.866776 -20.2296,14.332713 -7.1215,2.639401 -13.2616,1.511438 -16.5905,-3.047775 -2.163,-2.962325 -2.4441,-5.123838 -2.1896,-16.836164 0.2648,-12.187426 0.084,-13.437501 -1.9455,-13.437501 -1.2306,0 -4.3248,1.96875 -6.8758,4.375001 -2.5511,2.40625 -5.4808,4.375 -6.5105,4.375 -1.0296,0 -1.8721,0.84375 -1.8721,1.875 0,1.03125 -0.5083,1.875 -1.1295,1.875 -0.6213,0 -6.1674,4.961551 -12.3246,11.025676 -12.3158,12.129551 -17.3507,15.066601 -22.6004,13.183589 -3.2591,-1.168988 -3.3165,-1.383613 -3.1032,-11.604876 0.1195,-5.727613 0.8226,-11.019226 1.5625,-11.759114 0.7399,-0.7399 1.3452,-3.482775 1.3452,-6.095275 0,-6.101026 -2.2985,-6.225388 -12.7061,-0.6875 -4.1991,2.234375 -9.3862,4.9881 -11.5268,6.119375 -2.1407,1.131288 -5.4679,3.521913 -7.394,5.312501 -1.926,1.7906 -4.0074,3.255625 -4.6254,3.255625 -0.6179,0 -1.5733,0.722375 -2.1231,1.605275 -0.5497,0.8829 -5.0354,3.97665 -9.9681,6.875001 -11.0634,6.500625 -18.4609,7.2619 -20.4228,2.1017 -1.6764,-4.409326 -0.5377,-17.493364 1.8148,-20.852027 1.0733,-1.532412 1.9515,-3.78605 1.9515,-5.008088 0,-2.60365 -3.1768,-2.976125 -4.6254,-0.5423 -0.5497,0.923763 -3.5308,3.495538 -6.6246,5.715063 -3.0937,2.219513 -6.0554,4.803976 -6.5814,5.743238 -2.0073,3.584138 -23.0126,18.611764 -31.7053,22.682589 -9.5663,4.4799383 -13.7358,4.6380134 -18.2758,0.692926 -3.2196,-2.797701 -2.7874,-12.044126 1.0407,-22.267377 4.2217,-11.274101 4.7209,-12.996001 3.7678,-12.996001 -1.3939,0 -9.9938,5.820225 -13.6229,9.219663 -1.926,1.804188 -4.0354,3.280338 -4.6875,3.280338 -0.652,0 -1.1856,0.638625 -1.1856,1.419162 0,1.40685 -5.7265,7.330838 -7.0864,7.330838 -0.3893,0 -3.0321,2.332113 -5.8731,5.182463 -2.841,2.850351 -8.1186,7.148738 -11.728,9.551976 -3.6094,2.4032253 -6.5625,4.8523755 -6.5625,5.442538 0,0.5901626 -0.5683,1.0730251 -1.2628,1.0730251 -0.6946,0 -3.9981,1.9225752 -7.3412,4.2724004 -5.4356,3.8206128 -13.1807,6.9514005 -17.2442,6.9706255 -5.6789,0.026875 -7.5113,-15.1128387 -3.0588,-25.27209 4.4905,-10.245838 8.8677,-24.743852 8.8922,-29.452414 0.013,-2.568376 -0.2688,-2.707238 -2.7977,-1.376801 -2.436,1.281626 -6.0369,3.909313 -11.8222,8.627114 -0.8304,0.677137 -1.9982,1.231162 -2.5952,1.231162 -0.597,0 -2.7269,1.96875 -4.7332,4.375001 -2.0064,2.40625 -4.3228,4.375 -5.1478,4.375 -0.825,0 -3.6406,1.98095 -6.257,4.402113 -2.6164,2.421163 -8.5186,6.964488 -13.1159,10.096263 -4.5974,3.131788 -9.7668,6.998976 -11.4876,8.5937384 -1.7208,1.5947751 -3.5843,3.1072502 -4.1411,3.3610627 -3.6259,1.6527127 -10.3875,6.48282557 -10.3875,7.4203006 0,0.6195876 -0.8437,1.1265251 -1.875,1.1265251 -2.4007,0 -2.3739,1.1268001 0.091,3.8508629 1.8037,1.9930876 1.7497,2.2414626 -0.6531,3.0040752 -1.4407,0.4572501 -4.1536,0.5084621 -6.0288,0.11375 -3.1096,-0.65445 -3.6567,-0.1725625 -6.2219,5.4801631 -1.5469,3.408738 -2.8125,6.714588 -2.8125,7.346338 0,0.63175 -0.8438,1.848888 -1.875,2.70475 -1.0677,0.886063 -1.875,3.6114 -1.875,6.329288 0,2.625238 -0.5192,5.094063 -1.1538,5.486276 -0.6347,0.392212 -1.5335,2.534775 -1.9976,4.761275 -0.464,2.226488 -1.8522,6.298163 -3.0848,9.048163 -3.9668,8.850038 -6.079,14.892226 -6.8382,19.561902 -0.408,2.509038 -1.5706,5.249788 -2.5837,6.09055 -1.013,0.840825 -1.8419,2.600351 -1.8419,3.910113 0,2.784213 -8.1387,27.741117 -10.5375,32.312507 -0.9019,1.71875 -2.0401,5.34627 -2.5294,8.06116 -0.4893,2.71489 -1.6869,6.07442 -2.6614,7.46564 -0.9744,1.3912 -1.7717,4.14563 -1.7717,6.12096 0,1.97534 -0.799,5.08455 -1.7755,6.90938 -2.1498,4.01736 -5.5198,14.06903 -6.9084,20.6059 -0.5595,2.63342 -1.6469,5.4178 -2.4166,6.1875 -0.7697,0.76971 -1.3995,2.9765 -1.3995,4.90399 0,1.9275 -1.125,5.60353 -2.5,8.169 -1.375,2.56545 -2.5,5.84483 -2.5,7.28753 0,1.44269 -7.0637,27.04477 -15.6971,56.89351 -8.6334,29.84874 -16.8354,58.20794 -18.2268,63.02044 -1.3913,4.8125 -3.3757,11.5625 -4.4099,15 -1.0341,3.4375 -2.3382,8.09083 -2.8979,10.34072 -0.5598,2.2499 -1.9179,5.46447 -3.018,7.14352 -1.1002,1.67904 -2.0003,4.1333 -2.0003,5.4539 0,1.3206 -0.8403,4.01227 -1.8673,5.98148 -1.027,1.96921 -1.8831,4.70539 -1.9024,6.08039 -0.019,1.375 -1.1478,4.95205 -2.5077,7.949 -1.3599,2.99696 -2.4726,6.39365 -2.4726,7.5482 0,1.15456 -1.125,4.30581 -2.5,7.0028 -1.375,2.69699 -2.5,5.90966 -2.5,7.1393 0,1.22964 -0.5518,2.2357 -1.2262,2.2357 -0.6744,0 -1.592,1.54687 -2.039,3.4375 -0.8378,3.54281 -5.0963,9.0625 -6.9919,9.0625 -0.5893,0 -1.3978,-0.85065 -1.7967,-1.89034 z m 536.3573,-478.5103 c 1.7581,-2.590725 3.1965,-5.014763 3.1965,-5.386738 0,-0.967075 8.4007,-17.890572 9.7452,-19.632092 0.618,-0.80056 2.4005,-4.83057 3.9611,-8.95557 1.5606,-4.125 3.2756,-8.38349 3.8111,-9.4633 0.5356,-1.07982 2.469,-5.86107 4.2965,-10.625 1.8275,-4.76394 4.1357,-10.50892 5.1294,-12.76662 0.9937,-2.2577 1.8067,-4.95875 1.8067,-6.00235 0,-1.04359 1.0756,-3.97764 2.3902,-6.52009 1.3145,-2.54246 4.4449,-11.37265 6.9563,-19.62265 2.5114,-8.25 6.4788,-21.1875 8.8165,-28.75 7.9863,-25.83673 9.1391,-30.00474 9.9393,-35.9375 0.4405,-3.26563 0.3889,-5.9375 -0.1147,-5.9375 -1.3509,0 -5.4876,3.95875 -5.4876,5.25153 0,0.61273 -1.9687,5.31914 -4.375,10.45868 -2.4062,5.13954 -4.375,10.02454 -4.375,10.85555 0,0.83101 -1.1961,4.61554 -2.658,8.41008 -1.4619,3.79454 -3.4825,9.14916 -4.4901,11.89916 -1.0077,2.75 -2.5802,6.6875 -3.4945,8.75 -3.6286,8.18544 -11.8574,29.93828 -11.8574,31.34494 0,0.82186 -0.8402,3.10546 -1.8673,5.07468 -1.027,1.96921 -1.8707,4.54808 -1.875,5.73083 0,1.18277 -1.3512,5.12027 -2.9933,8.75001 -1.6421,3.62975 -3.3908,8.5683 -3.8859,10.97455 -0.4952,2.40625 -1.9323,6.90625 -3.1936,10 -1.2613,3.09375 -3.5047,10.125 -4.9853,15.625 -1.4807,5.499999 -3.2001,10.534374 -3.8208,11.187499 -0.6208,0.653125 -1.1288,2.936238 -1.1288,5.073588 0,2.13735 -0.8258,4.977975 -1.8352,6.3125 -1.0094,1.334526 -1.8531,4.067038 -1.875,6.072251 -0.045,4.166 -0.033,4.159463 4.2637,-2.171438 z m 104.6966,21.400602 c -2.02,-2.019938 -1.8886,-4.121388 0.375,-6 1.1415,-0.947388 1.875,-3.686026 1.875,-7.000889 0,-4.93565 -0.6454,-6.090163 -6.9022,-12.346938 -3.7962,-3.7962 -7.4752,-6.902176 -8.1756,-6.902176 -1.9849,0 -8.6608,-5.144538 -13.4657,-10.376813 -5.4524,-5.937366 -6.7748,-4.952576 -9.7379,7.251813 -2.9971,12.344414 -9.7334,27.921327 -12.5406,28.998527 -0.9229,0.354176 -1.6781,1.407726 -1.6781,2.341238 0,4.002926 -11.5532,6.055463 -12.9912,2.308 -2.3209,-6.048013 0.3666,-10.975063 5.2849,-9.688913 2.8199,0.737438 7.7063,-2.42765 7.7063,-4.991663 0,-0.698687 0.7671,-2.158375 1.7046,-3.243763 2.0081,-2.32485 7.0267,-16.948838 7.0879,-20.653639 0.023,-1.413387 1.1292,-4.819786 2.4576,-7.569786 1.3283,-2.75 2.4342,-5.71519 2.4575,-6.5893 0.023,-0.87411 1.4543,-2.23257 3.1798,-3.01878 2.6969,-1.22879 3.5744,-1.01894 6.25,1.49469 1.712,1.6083 3.1175,3.52925 3.1235,4.26878 0.015,1.88681 8.5782,10.719609 10.3922,10.719609 0.8226,0 2.1982,1.125 3.0569,2.5 0.8587,1.375 2.3515,2.5 3.3174,2.5 2.6664,0 13.0172,11.331864 14.5577,15.937501 0.7474,2.234376 2.0705,4.062501 2.9403,4.062501 2.3896,0 16.9617,-8.488476 24.141,-14.062501 2.4351,-1.890626 5.1469,-3.437501 6.0264,-3.437501 0.8794,0 1.7864,-0.505925 2.0156,-1.124275 0.2292,-0.61835 4.3542,-3.670913 9.1667,-6.783488 4.8125,-3.112576 9.8972,-6.784976 11.2994,-8.160886 3.474,-3.40891 9.2679,-4.78443 10.6906,-2.53804 0.6032,0.95243 1.1053,6.36093 1.1158,12.018889 0.013,6.49525 0.7603,12.139576 2.0299,15.312501 1.8832,4.706513 2.3312,5.0253 7.0629,5.0253 4.8233,0 18.4264,-5.4917 18.4264,-7.438913 0,-0.49255 3.2014,-3.098412 7.1142,-5.790813 8.4901,-5.842 18.4299,-14.932984 28.7937,-26.334854 12.2805,-13.51061 14.3597,-15.43542 16.6734,-15.43542 4.3972,0 5.2752,5.37851 2.9454,18.04123 -1.147,6.23358 -2.3607,15.130644 -2.6971,19.771269 -0.5462,7.532801 -0.3693,8.437501 1.6496,8.437501 2.8526,0 11.7708,-6.098963 11.7708,-8.049788 0,-0.802888 1.9687,-3.367988 4.375,-5.700213 2.4062,-2.332229 4.375,-4.933649 4.375,-5.780929 0,-0.84727 0.7241,-2.28381 1.6093,-3.19228 2.4949,-2.56085 7.1407,-10.52124 7.1407,-12.23542 0,-0.84621 0.8097,-3.31106 1.7995,-5.47746 1.6344,-3.57753 2.8029,-10.82894 5.5699,-34.56392 1.1159,-9.57191 0.7029,-18.33194 -1.086,-23.0372 -1.6404,-4.31451 -1.7201,-12.90266 -0.1047,-11.2753 1.9697,1.98416 5.2811,26.31505 4.626,33.98922 -0.338,3.95906 -0.9897,11.97953 -1.4482,17.82328 -0.4585,5.84376 -1.9494,13.98269 -3.3132,18.08654 -2.89,8.69652 -10.9654,24.588756 -13.2309,26.038081 -0.8593,0.549788 -1.5625,1.509188 -1.5625,2.131988 0,2.52525 -6.4759,10.426901 -11.511,14.045188 -2.9502,2.120063 -5.5515,4.325713 -5.7806,4.901438 -0.7817,1.963725 -7.3153,1.052988 -9.4618,-1.318912 -4.3719,-4.830926 -4.4911,-9.885826 -0.7329,-31.093393 0.8854,-4.99625 1.2662,-9.42771 0.8462,-9.84771 -0.42,-0.41999 -3.8545,2.40222 -7.6322,6.27159 -3.7776,3.86936 -7.4555,7.0352 -8.1731,7.0352 -0.7175,0 -1.306,0.70312 -1.3078,1.5625 0,0.85937 -2.6071,3.8125 -5.7895,6.562499 -3.1824,2.75 -8.7196,7.671875 -12.305,10.937501 -3.5853,3.265625 -7.1357,5.9375 -7.8896,5.9375 -0.754,0 -2.1145,0.984375 -3.0233,2.1875 -1.8561,2.457238 -3.9545,3.850475 -12.6545,8.402301 -7.0454,3.686113 -9.2802,3.8653 -14.8549,1.191087 -5.8364,-2.799687 -9.7475,-12.175638 -9.7375,-23.343389 0,-4.640625 -0.2467,-8.437499 -0.5576,-8.437499 -0.3108,0 -4.305,2.671874 -8.8761,5.937499 -4.5711,3.265625 -9.5589,6.78125 -11.0842,7.8125 -8.5031,5.749238 -17.0111,11.793839 -21.9745,15.612164 -3.0938,2.379963 -5.9874,4.340851 -6.4303,4.357526 -0.4429,0.01662 -3.8179,2.832962 -7.5,6.258425 -7.0809,6.587351 -8.4156,7.176013 -10.8197,4.771888 z m 262.2716,-133.187512 c 0.03,-1.29436 5.7021,-6.5625 7.066,-6.5625 0.6106,0 3.0808,-1.91394 5.4891,-4.2532 2.4084,-2.33926 6.8007,-5.51551 9.7607,-7.05833 2.9599,-1.54281 5.6738,-3.56637 6.0309,-4.4968 0.357,-0.93042 1.7316,-1.69167 3.0546,-1.69167 1.3231,0 2.7293,-0.84375 3.125,-1.875 0.3958,-1.03125 1.3907,-1.875 2.211,-1.875 1.5799,0 27.7822,-13.17024 30.4148,-15.28763 0.8518,-0.6851 1.2405,-1.74441 0.8637,-2.35401 -1.0644,-1.72231 -14.2585,-1.27974 -20.7714,0.69674 -3.2224,0.97792 -9.9724,2.17084 -15,2.65092 -5.0276,0.48009 -10.66,1.64264 -12.5165,2.58343 -1.8564,0.9408 -5.9715,1.71055 -9.1446,1.71055 -3.1731,0 -6.7962,0.54956 -8.0512,1.22125 -1.2551,0.67169 -4.1712,1.49684 -6.4803,1.83367 -15.2836,2.2294 -19.8578,3.12552 -22.1119,4.33185 -1.4009,0.74977 -5.6447,1.36323 -9.4306,1.36323 -3.7859,0 -7.1997,0.51174 -7.5862,1.1372 -0.3866,0.62547 -4.7791,1.80595 -9.7613,2.62331 -10.6202,1.74232 -22.2825,4.90273 -24.0584,6.51967 -0.8134,0.7406 -0.4696,1.71461 0.9845,2.78865 2.82,2.083 5.1376,9.43117 2.9746,9.43117 -0.8202,0 -2.0466,-1.24796 -2.7252,-2.77326 -1.7249,-3.87682 -10.5268,-9.63546 -14.8035,-9.68521 -1.9633,-0.0228 -6.9185,0.82627 -11.0117,1.88691 -10.3308,2.67699 -57.1757,3.24565 -60.2181,0.731 -2.9034,-2.3997 -2.7433,-7.65944 0.2331,-7.65944 1.2698,0 3.613,-1.13118 5.2071,-2.51373 2.7499,-2.38498 4.3442,-2.4941 31.1288,-2.13057 19.6929,0.26729 29.0942,0.85887 31.0867,1.95616 2.328,1.28208 4.7735,1.21376 13.2224,-0.36943 5.7014,-1.06834 12.3191,-1.94243 14.7062,-1.94243 2.387,0 4.8991,-0.559 5.5823,-1.24222 0.6832,-0.68323 4.8738,-1.57733 9.3125,-1.9869 4.4386,-0.40957 10.6015,-1.52161 13.6953,-2.4712 3.0937,-0.94959 9.5625,-2.10021 14.375,-2.55694 4.8125,-0.45673 9.875,-1.41533 11.25,-2.13022 1.375,-0.7149 6.1562,-1.48789 10.625,-1.71777 4.4687,-0.22988 11.2187,-1.3152 15,-2.41182 3.7812,-1.09662 11.0937,-2.25671 16.25,-2.57796 5.1562,-0.32126 10.5,-1.30457 11.875,-2.18515 1.375,-0.88058 6.5699,-1.88959 11.5442,-2.24223 4.9744,-0.35265 9.8267,-1.29052 10.7829,-2.08415 1.0115,-0.83944 4.2868,-1.22387 7.8308,-0.91912 3.3506,0.28812 6.7952,0.58051 7.6546,0.64976 0.9282,0.0748 1.5625,1.90094 1.5625,4.49862 0,3.85992 -0.6963,4.80995 -5.9375,8.10125 -3.2656,2.0507 -6.5938,3.73923 -7.3959,3.7523 -0.802,0.0131 -1.6458,0.49336 -1.875,1.06732 -0.2291,0.57397 -5.8977,3.71609 -12.5968,6.98251 -6.6991,3.26642 -12.4585,6.38929 -12.7987,6.93972 -0.3402,0.55044 -2.5525,1.36362 -4.9163,1.80707 -2.3638,0.44345 -4.4794,1.23345 -4.7014,1.75555 -0.2219,0.5221 -3.4972,2.54542 -7.2784,4.49626 -3.7813,1.95085 -7.1563,3.8965 -7.5,4.32366 -1.2426,1.54406 -8.6761,6.40166 -9.7964,6.40166 -0.6311,0 -1.8478,0.84375 -2.7036,1.875 -1.6448,1.98181 -3.7648,2.51489 -3.7284,0.9375 z m -119.1655,-21.79159 c 3.4269,-1.44044 3.3393,-1.50173 -3.3561,-2.34599 -3.7813,-0.4768 -8,-0.65792 -9.375,-0.40249 -2.0353,0.37809 -8.6056,1.17922 -13.4375,1.63847 -0.5157,0.049 -0.9375,0.6516 -0.9375,1.3391 0,1.77652 22.7929,1.58389 27.1061,-0.22909 z m -325.5176,-89.27613 c 0.4153,-0.41536 1.4935,-0.45977 2.3958,-0.0987 0.9972,0.39903 0.701,0.69522 -0.7552,0.7552 -1.3177,0.0543 -2.056,-0.24116 -1.6406,-0.65652 z"
       id="path3768"
       inkscape:connector-curvature="0" />
  </g>
</svg>
